<?xml version="1.0"?>
<svg xmlns="http://www.w3.org/2000/svg" height="512px" viewBox="0 0 64 64" width="512px"><g transform="matrix(1.0303 0 0 1.0303 -0.969631 -0.969631)"><g id="computer_coding" data-name="computer coding"><path d="m59 14h-7v-9a3.009 3.009 0 0 0 -3-3h-34a3.009 3.009 0 0 0 -3 3v9h-7a3.009 3.009 0 0 0 -3 3v32a3.009 3.009 0 0 0 3 3h19.82l-.67 4h-3.15a1.014 1.014 0 0 0 -.8.4l-3 4a1 1 0 0 0 -.09 1.05.977.977 0 0 0 .89.55h28a.977.977 0 0 0 .89-.55 1 1 0 0 0 -.09-1.05l-3-4a1.014 1.014 0 0 0 -.8-.4h-3.15l-.67-4h19.82a3.009 3.009 0 0 0 3-3v-32a3.009 3.009 0 0 0 -3-3zm-45-9a1 1 0 0 1 1-1h34a1 1 0 0 1 1 1v5h-36zm0 7h36v23a1 1 0 0 1 -1 1h-34a1 1 0 0 1 -1-1zm28.5 46 1.5 2h-24l1.5-2zm-16.32-2 .67-4h10.3l.67 4zm33.82-7a1 1 0 0 1 -1 1h-54a1 1 0 0 1 -1-1v-3h56zm0-5h-56v-27a1 1 0 0 1 1-1h7v19a3.009 3.009 0 0 0 3 3h4v2h-7v2h8a1 1 0 0 0 1-1v-3h6v4h2v-4h6v4h2v-4h6v3a1 1 0 0 0 1 1h8v-2h-7v-2h4a3.009 3.009 0 0 0 3-3v-19h7a1 1 0 0 1 1 1z" data-original="#000000" class="active-path" data-old_color="#000000" fill="#2962FF"/><path d="m46 6h2v2h-2z" data-original="#000000" class="active-path" data-old_color="#000000" fill="#2962FF"/><path d="m42 6h2v2h-2z" data-original="#000000" class="active-path" data-old_color="#000000" fill="#2962FF"/><path d="m38 6h2v2h-2z" data-original="#000000" class="active-path" data-old_color="#000000" fill="#2962FF"/><path d="m26.293 17.293-6 6a1 1 0 0 0 0 1.414l6 6 1.414-1.414-5.293-5.293 5.293-5.293z" data-original="#000000" class="active-path" data-old_color="#000000" fill="#2962FF"/><path d="m37.707 17.293-1.414 1.414 5.293 5.293-5.293 5.293 1.414 1.414 6-6a1 1 0 0 0 0-1.414z" data-original="#000000" class="active-path" data-old_color="#000000" fill="#2962FF"/><path d="m22.513 23h18.974v2h-18.974z" transform="matrix(.316 -.949 .949 .316 -.891 46.763)" data-original="#000000" class="active-path" data-old_color="#000000" fill="#2962FF"/></g></g> </svg>
